<?xml version="1.0" encoding="UTF-8"?> <svg xmlns="http://www.w3.org/2000/svg" xmlns:xlink="http://www.w3.org/1999/xlink" width="24px" height="32px" viewBox="0 0 24 32"><!-- Generator: Sketch 60.1 (88133) - https://sketch.com --><title>Combined Shape</title><desc>Created with Sketch.</desc><g id="04_Design" stroke="none" stroke-width="1" fill="none" fill-rule="evenodd"><g id="06b_About_Expanded" transform="translate(-1427.000000, -47.000000)" fill="#FFFFFF" fill-rule="nonzero"><g id="nav" transform="translate(170.000000, 35.000000)"><g id="nav--login" transform="translate(1239.000000, 0.000000)"><path d="M30,12 C33.8659932,12 37,15.1340068 37,19 C37,21.2367532 35.9509072,23.2284777 34.3179302,24.509965 C38.6841635,25.8888418 41.8729422,29.9189477 41.9962926,34.7115925 L42,35 L42,43 C42,43.5522847 41.5522847,44 41,44 C40.4871642,44 40.0644928,43.6139598 40.0067277,43.1166211 L40,43 L40,35 C40,30.1181973 36.1131863,26.1442086 31.2653623,26.0038371 L31,26 L29,26 C24.1181973,26 20.1442086,29.8868137 20.0038371,34.7346377 L20,35 L20,43 C20,43.5522847 19.5522847,44 19,44 C18.4871642,44 18.0644928,43.6139598 18.0067277,43.1166211 L18,43 L18,35 C18,30.0810707 21.2286744,25.9162388 25.6824011,24.5091263 C24.0490928,23.2284777 23,21.2367532 23,19 C23,15.1340068 26.1340068,12 30,12 Z M30,14 C27.2385763,14 25,16.2385763 25,19 C25,21.7614237 27.2385763,24 30,24 C32.7614237,24 35,21.7614237 35,19 C35,16.2385763 32.7614237,14 30,14 Z" id="Combined-Shape"></path></g></g></g></g></svg> 