<?xml version="1.0" encoding="UTF-8"?> <svg xmlns="http://www.w3.org/2000/svg" xmlns:xlink="http://www.w3.org/1999/xlink" width="572px" height="612px" viewBox="0 0 572 612"><!-- Generator: Sketch 61.1 (89650) - https://sketch.com --><title>Combined Shape</title><desc>Created with Sketch.</desc><g id="Sketches" stroke="none" stroke-width="1" fill="none" fill-rule="evenodd"><path d="M270.550841,0.290838546 L270.60442,0.301864547 C332.050507,3.25003343 387.861518,27.6886967 430.683386,66.2646441 L472.120507,24.8322145 L480.606768,33.3174839 C602.464411,155.160891 602.464411,352.708086 480.606768,474.551493 C422.281882,532.869564 346.53942,563.308154 270.031842,565.763915 L270.031,588 L348.041571,588.000034 C354.668979,588.000034 360.041554,593.372609 360.041554,600.000017 C360.041554,606.627425 354.668979,612 348.041571,612 L168.01799,612 C161.390582,612 156.018007,606.627425 156.018007,600.000017 C156.018007,593.372609 161.390582,588.000034 168.01799,588.000034 L246.028,588 L246.028294,565.616391 C174.072926,562.420785 102.981335,534.449414 46.6188477,481.616229 L42.927051,478.099521 L30.7659155,466.135244 L66.2711528,430.633525 C25.0749382,384.913475 0,324.384928 0,258.0005 C0,115.511235 115.523868,0.000863831314 258.02978,0.000863831314 C260.753517,0.000863831314 263.467397,0.0430612136 266.170802,0.126837827 C267.618994,-0.0842968018 269.105371,-0.0333108358 270.550841,0.290838546 Z M471.936468,58.9507806 L447.753726,83.1356091 C450.903954,86.5510074 453.963107,90.0516673 456.927329,93.633735 C492.845521,136.199618 515.023685,192.177932 516.024207,253.652887 L516.028,253.934 L516.029,253.961 L516.028,253.94 L516.029,254.023 L516.03,254.115 L516.058,257.823 L516.059561,258.0005 L516.059561,258.0005 C516.059561,287.111827 511.310662,315.042103 502.592756,340.960893 L502.439794,340.932529 C467.898594,442.738224 371.520805,516.000136 258.02978,516.000136 C190.551,516.000136 129.122055,490.100738 83.1434567,447.701357 L64.957497,465.882206 L66.5426707,467.346004 C178.562159,569.021394 351.067247,566.632304 460.276943,460.88446 L463.634246,457.580954 C572.743705,348.484242 576.016989,173.637043 473.454097,60.5953016 L471.936468,58.9507806 Z M273.406147,24.4978521 L271.344736,27.1544733 C250.70802,54.0651126 239.78234,71.8684899 239.78234,76.0827959 C239.78234,99.5449929 220.428446,119.206066 178.37694,148.113777 L173.519249,151.426551 C169.263211,154.307143 166.427208,156.845266 164.939955,158.702767 L164.586996,159.150639 L164.78604,159.289335 C170.271908,162.816018 184.010439,165.524092 203.30653,165.880845 L207.684937,165.920796 C230.057854,165.920796 242.998918,175.97167 242.998918,194.207801 L242.952624,196.74632 C242.663746,204.167656 240.924874,210.221305 235.035308,225.175382 L228.47472,241.537898 C227.280839,244.556399 226.322438,247.075958 225.421709,249.575859 C221.844657,259.503673 219.94861,267.277111 219.711702,273.661913 L219.686323,275.009109 C219.686323,303.911892 208.408677,331.100822 186.303952,356.235915 L185.823447,356.76636 L185.088378,358.76658 C174.74507,386.393255 163.687038,401.264696 148.382962,401.973698 L147.22714,402.000296 C121.717567,402.000296 100.773838,376.902205 100.059224,337.552042 L100.040376,335.467879 C100.040376,315.640365 97.3542892,300.719014 90.7587679,278.760262 L84.9178157,259.915862 C82.846457,253.153487 81.350512,247.934162 79.9083036,242.330734 C71.4018687,209.280588 84.0511389,186.944258 106.886683,176.083659 C111.307506,173.981112 112.043902,163.733523 103.987208,151.013109 L103.223914,149.844652 L103.04422,149.744722 C102.43669,149.417008 101.670843,149.033245 100.767633,148.606042 L99.8194125,148.164826 C96.4620644,146.626424 91.8762311,144.7562 86.6199213,142.77034 L81.373837,140.831999 C73.1679272,137.864317 65.0519363,135.217038 61.2465647,134.271406 C60.7060273,134.137083 60.1832415,133.968079 59.6799896,133.767355 C37.072901,169.764703 24.0027703,212.356434 24.0027703,258.0005 C24.0027703,387.234949 128.780232,492.000169 258.02978,492.000169 C361.365074,492.000169 449.057718,425.033853 480.068075,332.136063 C450.298927,313.749474 433.881677,273.961583 436.187796,250.368162 L436.490912,246.987875 C438.738381,219.203168 432.512575,215.28291 411.430638,212.064025 L410.173341,211.875313 C387.522227,208.529667 349.138291,178.048192 374.264714,151.091126 L375.262599,150.056118 C390.018826,135.248216 403.908131,110.865486 416.489863,85.8084406 C378.33194,50.6761957 328.463613,28.0684408 273.406147,24.4978521 Z M243.287257,24.46255 L242.64244,24.4985641 C174.450334,28.9241493 114.219424,62.5535138 74.3337268,113.004085 C91.9548441,118.317353 117.586823,128.572006 121.826407,134.540592 C138.94149,158.635601 138.004308,186.796433 118.351428,197.177733 L117.196839,197.756773 C104.106905,203.982354 97.7240127,215.253392 103.153658,236.349251 L104.53777,241.535839 C105.500703,245.019571 106.568856,248.646344 107.891256,252.962338 L112.679478,268.348175 C120.282254,293.031527 123.710734,310.163311 124.020016,332.134376 L124.043146,335.467879 C124.043146,363.708547 135.718832,378.00033 147.22714,378.00033 L147.500885,377.806546 C148.060478,377.35477 149.453372,376.044313 151.498183,373.170358 C155.433665,367.639088 159.676286,358.694665 164.020273,346.483829 C164.554359,344.982527 165.382136,343.602615 166.4553,342.424617 C185.450508,321.573811 195.033825,299.996243 195.651607,277.355104 L195.683552,275.009109 C195.683552,265.701695 197.830802,255.868748 201.931219,244.013285 L202.839705,241.441326 C203.990928,238.246202 205.202283,235.088028 206.774778,231.149752 L211.122561,220.347563 C217.459023,204.458702 218.996148,199.320278 218.996148,194.207801 C218.996148,190.886396 218.025053,189.993789 208.919358,189.925171 L207.684937,189.920762 C179.246348,189.920762 158.613293,185.73585 148.086978,176.718227 C132.765303,163.592545 139.115092,146.27985 158.790469,132.430969 L164.576022,128.471409 C198.417065,105.155674 215.063919,88.7159622 215.756976,76.8501895 L215.779569,76.0827959 C215.779569,65.8581421 224.672406,49.6712282 243.287257,24.46255 Z M434.156108,104.010717 L433.661559,104.980864 C419.260431,132.873529 407.368383,151.364195 393.782479,165.448887 L392.26575,166.995975 C389.238627,170.033699 389.255588,170.584093 392.735756,174.960406 C397.857783,181.401358 407.74575,187.25634 413.680981,188.132994 C451.294013,193.688565 464.192345,210.596799 460.076748,252.702621 C458.477142,269.067858 469.639489,292.136823 485.395454,305.987843 L486.867463,307.235605 C489.983291,292.687233 491.74661,277.637308 492.01944,262.223791 L492.056791,258.0005 L492.026912,254.200091 L492.026,254.193 L492.025,254.115 L492.025001,254.080542 L492.025001,254.080542 L492.024,254.023 L492.024,254.08 L491.994224,252.535647 C490.735909,197.634311 470.566503,147.404824 437.745122,108.105573 C437.226288,107.50142 436.7056,106.899021 436.181642,106.299518 L434.156108,104.010717 Z" id="Combined-Shape" fill="#FFAE01" fill-rule="nonzero"></path></g></svg> 