<svg id="Flat" height="512" viewBox="0 0 512 512" width="512" xmlns="http://www.w3.org/2000/svg"><path d="m368 347.777v100.223h-352v-100.223a32 32 0 0 1 17.689-28.622l78.311-39.155h160l78.311 39.155a32 32 0 0 1 17.689 28.622z" fill="#e9eef2"/><path d="m152 208h80v88h-80z" fill="#e0b999"/><path d="m120 64h144a0 0 0 0 1 0 0v96a64 64 0 0 1 -64 64h-16a64 64 0 0 1 -64-64v-96a0 0 0 0 1 0 0z" fill="#f0c6a4"/><path d="m160 80s24 40 72 40 64-64 64-64-24 8-48-16-56-16-56-16-16 0-32 16c-8-8-70.806-12.008-40 72z" fill="#ad6643"/><path d="m72 448v-48a8 8 0 0 1 16 0v48z" fill="#dadcde"/><path d="m296 448v-48a8 8 0 0 1 16 0v48z" fill="#dadcde"/><path d="m160 312 16 32h32l16-32-32-16z" fill="#d13330"/><path d="m152 256 40 40-48 40-32-56z" fill="#dadcde"/><path d="m232 256-40 40 48 40 32-56z" fill="#dadcde"/><path d="m224 368v80h-64v-80l16-24h32z" fill="#eb423f"/><path d="m408 400-24 88-24-24-40 8 40-112z" fill="#d13330"/><path d="m408 400 24 88 24-24 40 8-40-112z" fill="#d13330"/><circle cx="408" cy="312" fill="#eb423f" r="88"/><circle cx="408" cy="312" fill="#ffe76c" r="56"/><path d="m424 328h-8v-40a8 8 0 0 0 -8-8h-8a8 8 0 0 0 -5.657 2.343l-8 8a8 8 0 0 0 11.314 11.314l2.343-2.344v28.687h-8a8 8 0 0 0 0 16h32a8 8 0 0 0 0-16z" fill="#f2c837"/></svg>